<?xml version="1.0" standalone="no"?>
<!DOCTYPE svg PUBLIC "-//W3C//DTD SVG 20010904//EN"
 "http://www.w3.org/TR/2001/REC-SVG-20010904/DTD/svg10.dtd">
<svg version="1.0" xmlns="http://www.w3.org/2000/svg"
 width="225.000000pt" height="225.000000pt" viewBox="0 0 225.000000 225.000000"
 preserveAspectRatio="xMidYMid meet">
<metadata>
Created by potrace 1.14, written by Peter Selinger 2001-2017
</metadata>
<g transform="translate(0.000000,225.000000) scale(0.100000,-0.100000)"
fill="#000000" stroke="none">
<path d="M1062 2230 c-154 -41 -273 -131 -380 -288 -86 -127 -201 -330 -313
-552 -148 -295 -233 -506 -321 -798 -37 -123 -41 -148 -42 -247 -1 -99 2 -115
25 -165 54 -113 144 -171 276 -178 107 -6 195 16 321 79 53 27 102 49 108 49
6 0 21 -11 33 -24 36 -38 131 -59 249 -54 93 3 105 6 185 46 47 23 87 42 90
42 3 0 25 -16 49 -37 54 -46 129 -80 202 -94 141 -26 316 60 405 199 96 150
167 468 236 1062 19 168 43 358 52 424 20 144 11 232 -35 329 -42 90 -91 140
-180 185 -73 35 -80 37 -176 37 -113 0 -175 -20 -279 -89 -30 -20 -59 -36 -64
-36 -6 0 -39 19 -74 43 -119 79 -241 102 -367 67z m253 -117 c79 -42 132 -125
142 -228 l6 -54 27 57 c115 240 414 330 567 170 18 -18 41 -53 52 -78 35 -81
35 -136 -3 -405 -45 -322 -63 -462 -76 -610 -41 -453 -159 -754 -325 -831 -96
-45 -211 -27 -283 46 -43 42 -60 77 -75 152 l-13 62 -31 -50 c-47 -72 -110
-129 -178 -160 -49 -23 -75 -28 -140 -28 -138 -1 -194 43 -204 161 l-6 68 -47
-67 c-181 -253 -529 -294 -594 -70 -65 224 128 755 524 1437 158 272 203 330
306 390 115 67 263 83 351 38z"/>
<path d="M1052 1421 c-21 -13 -223 -553 -217 -578 3 -12 15 -27 26 -34 33 -17
64 -3 82 38 39 88 197 516 197 532 0 37 -55 63 -88 42z"/>
<path d="M1565 1420 c-8 -14 -195 -560 -195 -571 0 -18 40 -49 64 -49 13 0 29
6 35 14 7 8 55 139 107 292 89 262 94 278 79 300 -11 18 -25 24 -50 24 -18 0
-37 -4 -40 -10z"/>
</g>
</svg>
